<?xml version="1.0" encoding="UTF-8"?>
<svg version="1.1" xmlns="http://www.w3.org/2000/svg" width="1024" height="1024">
<path d="M0 0 C8.61867472 5.13040637 15.61621534 13.45370295 22.67211914 20.53979492 C24.16863519 22.04170206 25.67046893 23.53814344 27.17285156 25.03417969 C31.93303023 29.79146665 36.56195208 34.60844111 40.94018555 39.72436523 C43.7485617 42.92392242 46.83243314 45.83616504 49.90722656 48.77832031 C51.13238085 49.97458746 52.30881469 51.22035592 53.47558594 52.47363281 C53.47558594 53.13363281 53.47558594 53.79363281 53.47558594 54.47363281 C54.13558594 54.47363281 54.79558594 54.47363281 55.47558594 54.47363281 C56.9230957 55.92919922 56.9230957 55.92919922 58.60449219 57.95019531 C61.14520062 60.93949654 63.73110019 63.84685864 66.44042969 66.68457031 C67.09462891 67.37164062 67.74882813 68.05871094 68.42285156 68.76660156 C69.77443938 70.18052955 71.12870313 71.59190345 72.48535156 73.00097656 C73.13052734 73.6803125 73.77570313 74.35964844 74.44042969 75.05957031 C75.31622681 75.97295166 75.31622681 75.97295166 76.2097168 76.90478516 C77.47558594 78.47363281 77.47558594 78.47363281 77.47558594 80.47363281 C78.13558594 80.47363281 78.79558594 80.47363281 79.47558594 80.47363281 C80.88574219 81.87207031 80.88574219 81.87207031 82.53808594 83.84863281 C85.30376003 87.10304349 88.10866786 90.30777114 90.97558594 93.47363281 C95.8078587 98.83380092 100.5737745 104.24372855 105.26074219 109.73144531 C106.29066073 110.93719957 107.32060947 112.14292804 108.35058594 113.34863281 C108.87023926 113.95715088 109.38989258 114.56566895 109.92529297 115.19262695 C112.95451127 118.72987139 116.02707177 122.21755858 119.16308594 125.66113281 C123.33018366 130.26059487 127.26607233 135.01927264 131.16113281 139.85009766 C132.63855614 141.67492402 134.12685362 143.49056584 135.61621094 145.30566406 C146.24419457 158.27741418 156.14703157 171.70498771 165.92822266 185.32080078 C167.30731111 187.23951362 168.68972238 189.15577102 170.07324219 191.07128906 C180.16955914 205.08275373 189.80378974 219.41498311 199.41217041 233.76342773 C200.27084687 235.04495815 201.13062407 236.32575189 201.99163818 237.60571289 C207.39669962 245.64593115 212.5550126 253.78962486 217.48339844 262.13110352 C219.34759934 265.25889452 221.27028362 268.33973022 223.22558594 271.41113281 C228.89052639 280.58132584 233.87944601 290.13674335 238.95507812 299.64111328 C240.25052494 302.05437177 241.56321693 304.4562403 242.88964844 306.85253906 C284.59276674 382.76451838 300.6709399 474.27302799 276.47558594 558.47363281 C276.25064453 559.26463379 276.02570312 560.05563477 275.79394531 560.87060547 C267.46708393 589.66858319 254.92718188 617.03392458 237.47558594 641.47363281 C236.82203125 642.39917969 236.16847656 643.32472656 235.49511719 644.27832031 C228.91957321 653.46118831 221.91913415 662.14031811 214.26074219 670.44238281 C212.43112656 672.35044732 212.43112656 672.35044732 211.47558594 674.47363281 C210.81558594 674.47363281 210.15558594 674.47363281 209.47558594 674.47363281 C209.22035156 675.055 208.96511719 675.63636719 208.70214844 676.23535156 C204.91955229 683.13798721 197.39992674 688.41577723 191.47558594 693.47363281 C190.09113281 694.69179687 190.09113281 694.69179687 188.67871094 695.93457031 C140.79729216 737.74404241 77.69417671 762.11988806 14.47558594 766.47363281 C12.877229 766.60064575 12.877229 766.60064575 11.24658203 766.73022461 C-0.09253021 767.55524733 -11.40921956 767.65979118 -22.77539062 767.65893555 C-25.99134809 767.66111045 -29.20695487 767.67930489 -32.42285156 767.69824219 C-78.24180821 767.82212512 -123.2311731 760.34740843 -165.52441406 742.47363281 C-166.27932129 742.16200195 -167.03422852 741.85037109 -167.81201172 741.52929688 C-195.24654789 730.18576737 -220.45770816 713.60873154 -242.29003906 693.52441406 C-244.37608292 691.6097759 -246.50123452 689.75540323 -248.64941406 687.91113281 C-252.77717587 684.30565923 -256.93654839 680.62448805 -260.52441406 676.47363281 C-260.52441406 675.81363281 -260.52441406 675.15363281 -260.52441406 674.47363281 C-261.18441406 674.47363281 -261.84441406 674.47363281 -262.52441406 674.47363281 C-263.94147908 672.9247478 -265.28250902 671.30601747 -266.58691406 669.66113281 C-269.62776773 665.85038148 -272.69735964 662.07828597 -275.83691406 658.34863281 C-285.2234309 646.83253973 -293.42441586 634.67262752 -300.40478516 621.56445312 C-301.56650672 619.39502803 -302.75681523 617.24297227 -303.95019531 615.09082031 C-326.68450326 573.59837852 -337.74179882 527.61201724 -337.77441406 480.41113281 C-337.77508881 479.52924286 -337.77576355 478.64735291 -337.77645874 477.73873901 C-337.71467975 426.63942764 -324.73618723 372.96927914 -302.99316406 326.62597656 C-301.80018237 324.06550787 -300.63894299 321.49671401 -299.49316406 318.91503906 C-294.77275987 308.28743913 -289.85858291 297.80673623 -284.52441406 287.47363281 C-284.15767578 286.75949219 -283.7909375 286.04535156 -283.41308594 285.30957031 C-252.84588819 225.93369381 -252.84588819 225.93369381 -233.52441406 205.47363281 C-232.92628906 204.82265625 -232.32816406 204.17167969 -231.71191406 203.50097656 C-225.79407633 197.26806876 -219.34233269 191.94306805 -210.57128906 191.23535156 C-201.73927141 191.03652652 -196.40400159 192.03490751 -189.77441406 197.91113281 C-189.03191406 198.75675781 -188.28941406 199.60238281 -187.52441406 200.47363281 C-186.80253906 201.27800781 -186.08066406 202.08238281 -185.33691406 202.91113281 C-181.01527989 209.0210294 -180.93210349 216.06421828 -180.21191406 223.28613281 C-178.07954648 242.51086814 -173.64887874 262.1049103 -158.52441406 275.47363281 C-154.91913707 278.04527254 -151.77835483 279.70450522 -147.27441406 279.24316406 C-141.36654946 277.55080701 -136.41530645 274.09755118 -131.52441406 270.47363281 C-130.03941406 269.39082031 -130.03941406 269.39082031 -128.52441406 268.28613281 C-115.9056611 257.37073769 -106.54243562 241.41294954 -97.52441406 227.47363281 C-96.821875 226.39082031 -96.11933594 225.30800781 -95.39550781 224.19238281 C-90.56535602 216.55488252 -86.43778256 208.68422673 -82.52441406 200.55175781 C-81.532501 198.49043848 -80.52856813 196.43526066 -79.52441406 194.37988281 C-60.12632386 154.30975557 -49.01913978 111.66931286 -44.52441406 67.47363281 C-44.38084473 66.08192871 -44.38084473 66.08192871 -44.234375 64.66210938 C-43.68921975 58.84778082 -43.42580058 53.05334482 -43.31347656 47.21582031 C-43.29909042 46.49453445 -43.28470428 45.7732486 -43.2698822 45.03010559 C-43.21278915 42.05186452 -43.15789934 39.07380955 -43.12304688 36.09521484 C-42.84450343 14.03745515 -42.84450343 14.03745515 -34.43066406 5.23144531 C-25.02443233 -3.44233395 -11.81952874 -5.81844351 0 0 Z " fill="#FD8701" transform="translate(532.5244140625,137.5263671875)"/>
<path d="M0 0 C3.69613584 3.58958057 7.0341377 7.34179819 10.3125 11.3125 C14.62578031 16.48153747 19.11053004 21.36270901 24 26 C23.67 26.66 23.34 27.32 23 28 C22.5875 27.54625 22.175 27.0925 21.75 26.625 C19.93591905 24.94049626 18.24714373 24.00734029 16 23 C16 22.34 16 21.68 16 21 C15.34 21 14.68 21 14 21 C12.50122497 19.34516392 11.07511527 17.62409488 9.6875 15.875 C7.16447958 12.70494692 4.64621929 9.57478266 1.9375 6.5625 C0 4 0 4 0 0 Z " fill="#FC6F00" transform="translate(256,791)"/>
<path d="M0 0 C0 0.33 0 0.66 0 1 C-8.82604725 3.38461892 -17.57165203 3.23155728 -26.625 3.125 C-28.12108773 3.11494608 -29.61718203 3.10582451 -31.11328125 3.09765625 C-34.74232626 3.07584308 -38.37111985 3.04144741 -42 3 C-38.71486374 1.0563918 -36.13645143 0.70607668 -32.34375 0.5859375 C-30.68472656 0.52792969 -30.68472656 0.52792969 -28.9921875 0.46875 C-27.26355469 0.42234375 -27.26355469 0.42234375 -25.5 0.375 C-24.37851562 0.33632813 -23.25703125 0.29765625 -22.1015625 0.2578125 C-14.73284023 0.01956282 -7.37215228 -0.04519712 0 0 Z " fill="#FD7100" transform="translate(541,902)"/>
<path d="M0 0 C0.66515625 0.66773438 1.3303125 1.33546875 2.015625 2.0234375 C4.24163377 4.25101609 6.48552724 6.45955501 8.734375 8.6640625 C10.0730062 9.98428423 11.41154613 11.3045985 12.75 12.625 C13.43449219 13.29273438 14.11898437 13.96046875 14.82421875 14.6484375 C15.47519531 15.29296875 16.12617187 15.9375 16.796875 16.6015625 C17.68391113 17.47288818 17.68391113 17.47288818 18.58886719 18.36181641 C20 20 20 20 21 23 C18 23 18 23 16.3125 21.625 C15 20 15 20 15 18 C14.34 18 13.68 18 13 18 C11.44921875 16.42578125 11.44921875 16.42578125 9.6875 14.3125 C7.57416977 11.80650508 5.52797841 9.55876243 3.125 7.3125 C0.81513273 4.79882092 0.28766447 3.35608552 0 0 Z " fill="#FD7700" transform="translate(566,170)"/>
<path d="M0 0 C2.977088 1.32744616 4.91757444 2.74009299 7.125 5.125 C11.38909309 9.5377325 16.15631881 13.2478526 21 17 C19.37109375 17.8125 19.37109375 17.8125 17 18 C14.80030117 16.40241956 12.99245607 14.87987797 11.0625 13 C10.52979492 12.49686279 9.99708984 11.99372559 9.44824219 11.4753418 C5.77684177 7.94023336 2.70048552 4.34006601 0 0 Z " fill="#FD7400" transform="translate(283,822)"/>
<path d="M0 0 C0.33 0.99 0.66 1.98 1 3 C-0.2375 2.938125 -1.475 2.87625 -2.75 2.8125 C-8.747766 2.78380256 -14.2669714 4.37030659 -20 6 C-18.296875 2.15625 -18.296875 2.15625 -15.625 0.75 C-10.41184845 -0.32858308 -5.30374512 -0.15447801 0 0 Z " fill="#FD7700" transform="translate(331,329)"/>
<path d="M0 0 C1.52546768 0.09725689 3.05024661 0.2058149 4.57421875 0.32421875 C5.33412109 0.37255859 6.09402344 0.42089844 6.87695312 0.47070312 C10.74615303 0.73626941 14.47478648 1.12734535 18.26171875 2.01171875 C17.93171875 2.67171875 17.60171875 3.33171875 17.26171875 4.01171875 C14.55311751 3.86995454 11.84491123 3.72343659 9.13671875 3.57421875 C7.99589844 3.51524414 7.99589844 3.51524414 6.83203125 3.45507812 C2.57662672 3.21662873 -1.54198951 2.80941638 -5.73828125 2.01171875 C-3.73828125 0.01171875 -3.73828125 0.01171875 0 0 Z " fill="#FD7100" transform="translate(446.73828125,898.98828125)"/>
<path d="M0 0 C3.37368681 3.07513046 5.50901962 6.28518856 7.75 10.25 C8.67039063 11.86648438 8.67039063 11.86648438 9.609375 13.515625 C10.06828125 14.33546875 10.5271875 15.1553125 11 16 C10.34 16.99 9.68 17.98 9 19 C7.48901123 16.58961315 5.991175 14.17259962 4.5 11.75 C4.07074219 11.06808594 3.64148438 10.38617187 3.19921875 9.68359375 C2.79316406 9.01972656 2.38710937 8.35585938 1.96875 7.671875 C1.40317383 6.76066895 1.40317383 6.76066895 0.82617188 5.83105469 C0 4 0 4 0 0 Z " fill="#FC6F00" transform="translate(232,755)"/>
<path d="M0 0 C-0.66 0 -1.32 0 -2 0 C-2 0.66 -2 1.32 -2 2 C-9.15775723 4.28612778 -15.48193151 5.44032071 -23 5 C-19.22007255 2.81889304 -15.13504271 1.85905205 -10.9375 0.8125 C-10.21755859 0.62236328 -9.49761719 0.43222656 -8.75585938 0.23632812 C-3.36240079 -1.12080026 -3.36240079 -1.12080026 0 0 Z " fill="#FD7400" transform="translate(610,891)"/>
<path d="M0 0 C-3.65728405 2.43818936 -6.93287895 2.6716692 -11.1875 3.125 C-12.31188477 3.25455078 -12.31188477 3.25455078 -13.45898438 3.38671875 C-15.30517412 3.59838382 -17.15249344 3.80015464 -19 4 C-19 3.01 -19 2.02 -19 1 C-16.39674384 0.63752129 -13.79279598 0.28472345 -11.1875 -0.0625 C-10.44951172 -0.16626953 -9.71152344 -0.27003906 -8.95117188 -0.37695312 C-5.56825221 -0.82086566 -3.27944975 -1.09314992 0 0 Z " fill="#FE6F00" transform="translate(574,899)"/>
<path d="M0 0 C1.875 0.25 1.875 0.25 4 1 C5.25 3.0625 5.25 3.0625 6 5 C6.66 5 7.32 5 8 5 C9.38938077 6.96147874 10.7260411 8.96166576 12 11 C9 11 9 11 7.39453125 9.7578125 C6.87246094 9.21898437 6.35039063 8.68015625 5.8125 8.125 C5.28269531 7.59132812 4.75289062 7.05765625 4.20703125 6.5078125 C3 5 3 5 3 3 C2.01 2.67 1.02 2.34 0 2 C0 1.34 0 0.68 0 0 Z " fill="#FC7000" transform="translate(604,213)"/>
<path d="M0 0 C0.66 0 1.32 0 2 0 C1.67 9.57 1.34 19.14 1 29 C0.67 29 0.34 29 0 29 C-0.19616609 24.5420032 -0.38047068 20.08359465 -0.5625 15.625 C-0.61857422 14.35398438 -0.67464844 13.08296875 -0.73242188 11.7734375 C-0.80493164 9.95585937 -0.80493164 9.95585937 -0.87890625 8.1015625 C-0.9260376 6.98088379 -0.97316895 5.86020508 -1.02172852 4.70556641 C-1 2 -1 2 0 0 Z " fill="#FD7500" transform="translate(492,153)"/>
<path d="M0 0 C0.66 0.33 1.32 0.66 2 1 C2 1.66 2 2.32 2 3 C-2.62 4.65 -7.24 6.3 -12 8 C-12 7.01 -12 6.02 -12 5 C-10.04578965 4.13644222 -8.08648653 3.28440066 -6.125 2.4375 C-5.03445313 1.96183594 -3.94390625 1.48617187 -2.8203125 0.99609375 C-1.88960937 0.66738281 -0.95890625 0.33867188 0 0 Z " fill="#FD7600" transform="translate(649,875)"/>
<path d="M0 0 C0.66 0 1.32 0 2 0 C1.55966813 5.19591612 1.11696661 8.66335081 -2 13 C-2.66 12.67 -3.32 12.34 -4 12 C-2.68 8.04 -1.36 4.08 0 0 Z " fill="#FC7700" transform="translate(475,276)"/>
<path d="M0 0 C3.87511727 0.54984772 5.59576506 2.27555331 8.25 5.0625 C8.95640625 5.79597656 9.6628125 6.52945313 10.390625 7.28515625 C10.92171875 7.85105469 11.4528125 8.41695312 12 9 C11.34 9.66 10.68 10.32 10 11 C9.44570313 10.43410156 8.89140625 9.86820313 8.3203125 9.28515625 C7.59585938 8.55167969 6.87140625 7.81820312 6.125 7.0625 C5.40570312 6.33160156 4.68640625 5.60070312 3.9453125 4.84765625 C2.12972808 2.94332001 2.12972808 2.94332001 0 2 C0 1.34 0 0.68 0 0 Z " fill="#FC7600" transform="translate(544,150)"/>
<path d="M0 0 C0.99 0 1.98 0 3 0 C3.69699552 1.45381897 4.38233866 2.91322953 5.0625 4.375 C5.63677734 5.59316406 5.63677734 5.59316406 6.22265625 6.8359375 C6.47917969 7.55007813 6.73570312 8.26421875 7 9 C6.67 9.66 6.34 10.32 6 11 C2.6433715 8.76224766 2.42003986 8.06679952 1.3125 4.375 C1.06113281 3.55773437 0.80976563 2.74046875 0.55078125 1.8984375 C0.36902344 1.27195312 0.18726563 0.64546875 0 0 Z " fill="#FD7100" transform="translate(217,727)"/>
<path d="M0 0 C0.66 0 1.32 0 2 0 C1.125 7.625 1.125 7.625 0 11 C-0.99 10.67 -1.98 10.34 -3 10 C-2.01 6.7 -1.02 3.4 0 0 Z " fill="#FC7600" transform="translate(206,535)"/>
<path d="M0 0 C7.42857143 -0.14285714 7.42857143 -0.14285714 11 1 C11 1.99 11 2.98 11 4 C5.06 3.01 5.06 3.01 -1 2 C-0.67 1.34 -0.34 0.68 0 0 Z " fill="#FE7200" transform="translate(425,896)"/>
<path d="M0 0 C2 3 2 3 2 5 C2.66 5 3.32 5 4 5 C4.66 7.31 5.32 9.62 6 12 C5.01 12.33 4.02 12.66 3 13 C2.49242138 11.58603098 1.99425075 10.16868271 1.5 8.75 C1.08234375 7.56664062 1.08234375 7.56664062 0.65625 6.359375 C0 4 0 4 0 0 Z " fill="#FD7000" transform="translate(802,513)"/>
<path d="M0 0 C3.79588866 0.54226981 5.47211993 2.20127563 8 5 C7.67 5.99 7.34 6.98 7 8 C5.8274869 7.04882866 4.66212985 6.08882991 3.5 5.125 C2.8503125 4.59132812 2.200625 4.05765625 1.53125 3.5078125 C1.0259375 3.01023438 0.520625 2.51265625 0 2 C0 1.34 0 0.68 0 0 Z " fill="#FD7200" transform="translate(592,200)"/>
<path d="M0 0 C1.1875 1.5625 1.1875 1.5625 2 4 C0.625 7.75 0.625 7.75 -1 11 C-1.66 10.67 -2.32 10.34 -3 10 C-2.39009109 6.44219804 -1.4216319 3.3171411 0 0 Z " fill="#FC7300" transform="translate(236,449)"/>
<path d="M0 0 C1.875 0.625 1.875 0.625 4 2 C5.25 5.125 5.25 5.125 6 8 C5.01 8 4.02 8 3 8 C0 2.25 0 2.25 0 0 Z " fill="#FD7100" transform="translate(770,439)"/>
<path d="M0 0 C1.31223496 3.93670488 0.24296256 6.12488144 -1 10 C-1.66 9.01 -2.32 8.02 -3 7 C-1.59459459 1.59459459 -1.59459459 1.59459459 0 0 Z " fill="#FC7800" transform="translate(480,263)"/>
<path d="M0 0 C1.670625 0.061875 1.670625 0.061875 3.375 0.125 C1.6875 1.6875 1.6875 1.6875 -0.625 3.125 C-3.375 2.8125 -3.375 2.8125 -5.625 2.125 C-3.625 0.125 -3.625 0.125 0 0 Z " fill="#FE7700" transform="translate(582.625,895.875)"/>
<path d="M0 0 C0.99 0.33 1.98 0.66 3 1 C1.6875 3.5 1.6875 3.5 0 6 C-0.99 6 -1.98 6 -3 6 C-2 4 -1 2 0 0 Z " fill="#FD6F00" transform="translate(756,792)"/>
<path d="M0 0 C1.875 0.1875 1.875 0.1875 4 1 C5.25 3.5625 5.25 3.5625 6 6 C4.125 5.8125 4.125 5.8125 2 5 C0.75 2.4375 0.75 2.4375 0 0 Z " fill="#FC6A00" transform="translate(242,774)"/>
<path d="" fill="#FFFF00" transform="translate(0,0)"/>
<path d="" fill="#FFFF00" transform="translate(0,0)"/>
<path d="" fill="#FFFF00" transform="translate(0,0)"/>
</svg>
