<svg xmlns="http://www.w3.org/2000/svg" width="100%" height="100%" viewBox="0 0 96 96" fill="none">
  <defs>
    <linearGradient id="gold" x1="29" y1="36" x2="70" y2="82" gradientUnits="userSpaceOnUse">
      <stop stop-color="#FFE76A"/>
      <stop offset=".3" stop-color="#FFC21C"/>
      <stop offset=".72" stop-color="#F39A00"/>
      <stop offset="1" stop-color="#D97800"/>
    </linearGradient>
    <radialGradient id="shine" cx="0" cy="0" r="1" gradientTransform="translate(39 45) rotate(48) scale(34)">
      <stop stop-color="white" stop-opacity=".62"/>
      <stop offset=".42" stop-color="white" stop-opacity=".08"/>
      <stop offset="1" stop-color="white" stop-opacity="0"/>
    </radialGradient>
    <filter id="shadow" x="18" y="24" width="60" height="65" filterUnits="userSpaceOnUse">
      <feGaussianBlur in="SourceAlpha" stdDeviation="1.7"/>
      <feOffset dy="2"/>
      <feColorMatrix values="0 0 0 0 0.45 0 0 0 0 0.28 0 0 0 0 0 0 0 0 .28 0"/>
      <feBlend in="SourceGraphic"/>
    </filter>
  </defs>
  <path d="M29 12h7l13 31-9 4-11-35Z" fill="#0788E8"/>
  <path d="M34 12h5l12 30-6 3-11-33Z" fill="white"/>
  <path d="M38 12h5l10 28-5 3-10-31Z" fill="#F0443C"/>
  <path d="M67 12h-7L47 43l9 4 11-35Z" fill="#0788E8"/>
  <path d="M62 12h-5L45 42l6 3 11-33Z" fill="white"/>
  <path d="M58 12h-5L43 40l5 3 10-31Z" fill="#F0443C"/>
  <g filter="url(#shadow)">
    <circle cx="48" cy="61" r="25" fill="url(#gold)"/>
    <circle cx="48" cy="61" r="21.5" stroke="#FFF0A0" stroke-width="1.5" opacity=".75"/>
    <circle cx="48" cy="61" r="25" fill="url(#shine)"/>
    <path d="M37 43c5-4 12-5 18-3" stroke="#FFF6BF" stroke-width="3" stroke-linecap="round" opacity=".7"/>
  </g>
  <text x="48" y="70" fill="white" font-family="Arial, Helvetica, sans-serif" font-size="27" font-weight="700" text-anchor="middle">1</text>
</svg>
