<svg width="24" height="24" viewBox="0 0 24 24" fill="none" xmlns="http://www.w3.org/2000/svg">
<path d="M18 14C18 16.5964 17.1579 19.1228 15.6 21.2C15.2817 21.6243 14.8079 21.9049 14.2828 21.9799C13.7577 22.0549 13.2243 21.9183 12.8 21.6C12.3757 21.2817 12.0951 20.8079 12.0201 20.2828C11.9451 19.7577 12.0817 19.2243 12.4 18.8C13.4386 17.4152 14 15.731 14 14M16 6V14M13 6C9.95862 6.07835 6.9861 5.0875 4.6 3.2C4.45143 3.08857 4.27477 3.02072 4.08981 3.00404C3.90484 2.98736 3.71889 3.02252 3.55279 3.10557C3.38668 3.18863 3.24698 3.31629 3.14935 3.47427C3.05171 3.63225 3 3.81429 3 4V16C3 16.1857 3.05171 16.3678 3.14935 16.5257C3.24698 16.6837 3.38668 16.8114 3.55279 16.8944C3.71889 16.9775 3.90484 17.0126 4.08981 16.996C4.27477 16.9793 4.45143 16.9114 4.6 16.8C6.9861 14.9125 9.95862 13.9217 13 14H19C19.5304 14 20.0391 13.7893 20.4142 13.4142C20.7893 13.0391 21 12.5304 21 12V8C21 7.46957 20.7893 6.96086 20.4142 6.58579C20.0391 6.21071 19.5304 6 19 6H13Z" stroke="black" stroke-width="2" stroke-linecap="round" stroke-linejoin="round"/>
</svg>
