<svg width="100%" height="100%" viewBox="0 0 19 19" fill="none" xmlns="http://www.w3.org/2000/svg">
<path d="M15.0007 3.85805e-07C14.1832 3.85805e-07 13.3507 0.3135 12.7267 0.9375L5.766 7.899L1.66425 9.46875L1.266 9.633L1.1955 10.0553L0.141 17.109L0 18.1163L1.00875 17.9767L8.064 16.9222L8.4855 16.8517L8.64975 16.4535L10.1265 12.5625L10.5015 12.2115L17.2515 5.4615C18.4612 4.251 18.4845 2.3085 17.3452 1.0545L17.2515 0.9375C16.957 0.640274 16.6066 0.40438 16.2204 0.243461C15.8342 0.0825427 15.4191 -0.000206186 15.0007 3.85805e-07ZM15.0007 1.47675C15.4222 1.47675 15.8445 1.66425 16.1955 2.016C16.899 2.71875 16.899 3.7035 16.1955 4.40625L12.4222 8.1795L10.0312 5.78925L13.8052 2.016C14.1562 1.66425 14.5792 1.47675 15.0007 1.47675ZM8.9535 6.86775L11.3445 9.258L9.98475 10.6178L7.59375 8.22675L8.9535 6.86775ZM6.4455 9.23475H6.46875L8.88375 11.6483L7.40625 15.516L3.024 16.1483L5.03925 14.133C5.0805 14.136 5.11575 14.1562 5.15625 14.1562C5.8185 14.1562 6.37575 13.6237 6.37575 12.9615C6.37575 12.2992 5.8185 11.7428 5.15625 11.7428C4.494 11.7428 3.9615 12.2992 3.9615 12.9615C3.9615 13.002 3.98175 13.0372 3.98475 13.0785L1.96875 15.0938L2.60175 10.7115L6.4455 9.23475Z" fill="currentColor"/>
</svg>
