<svg width="100%" height="100%" viewBox="0 0 24 24" fill="none" xmlns="http://www.w3.org/2000/svg">
<path d="M21.7992 20.3305V10.5305L19.8392 9.06047L17.8792 10.5735L16.1642 9.06047L14.4492 10.5305L12.7342 9.06047L11.0192 10.5305V1.71047L9.05922 0.730469L7.09922 1.71047V14.4505L4.15922 11.5105L2.19922 12.4905L4.54222 17.6035L9.05922 23.2705H18.3692L21.7992 20.3305Z" fill="white"/>
<path d="M7.10742 20.8209L9.05942 23.2709H18.3694L21.7994 20.3309V17.4609L17.8794 20.8209H7.10742Z" fill="#BBD8FF"/>
<path d="M21.7992 20.3305V10.5305L19.8392 9.06047L17.8792 10.5735L16.1642 9.06047L14.4492 10.5305L12.7342 9.06047L11.0192 10.5305V1.71047L9.05922 0.730469L7.09922 1.71047V14.4505L4.15922 11.5105L2.19922 12.4905L4.54222 17.6035L9.05922 23.2705H18.3692L21.7992 20.3305Z" stroke="#092F63" stroke-linecap="round" stroke-linejoin="round"/>
</svg>
