<svg width="100%" height="100%" viewBox="0 0 24 24" fill="none" xmlns="http://www.w3.org/2000/svg">
<path fill-rule="evenodd" clip-rule="evenodd" d="M9.42708 4.55706C5.66208 6.97506 3.57041 9.78956 3.15208 13.0006C2.50058 17.9991 6.97057 20.4456 9.23557 18.2476C11.5006 16.0496 10.1431 13.2591 8.50307 12.4961C6.86307 11.7331 5.86008 11.9991 6.03508 10.9796C6.21008 9.96006 8.54307 7.13456 10.5931 5.81856C10.6656 5.75672 10.7119 5.66957 10.7225 5.57484C10.7331 5.4801 10.7072 5.38489 10.6501 5.30856L10.1431 4.64906C9.92307 4.36306 9.71208 4.37406 9.42708 4.55656M19.3401 4.55706C15.5751 6.97506 13.4834 9.78956 13.0651 13.0006C12.4131 17.9991 16.8831 20.4456 19.1481 18.2476C21.4131 16.0496 20.0556 13.2591 18.4151 12.4961C16.7746 11.7331 15.7721 11.9991 15.9471 10.9796C16.1221 9.96006 18.4556 7.13456 20.5056 5.81856C20.578 5.75665 20.6242 5.66947 20.6347 5.57473C20.6452 5.48 20.6192 5.38483 20.5621 5.30856L20.0556 4.64906C19.8356 4.36306 19.6246 4.37406 19.3401 4.55656" fill="currentColor"/>
</svg>
