<svg width="100%" height="100%" viewBox="0 0 36 36" fill="none" xmlns="http://www.w3.org/2000/svg">
<path d="M22.5 21.375H20.25V14.625H22.5V21.375ZM22.5 27V32.625C22.5 32.9234 22.3815 33.2095 22.1705 33.4205C21.9595 33.6315 21.6734 33.75 21.375 33.75H14.625C14.3266 33.75 14.0405 33.6315 13.8295 33.4205C13.6185 33.2095 13.5 32.9234 13.5 32.625V27H15.75V31.5H20.25V27H22.5ZM13.5 21.375V14.625H15.75V21.375H13.5ZM22.5 9H20.25V4.5H15.75V9H13.5V3.375C13.5 3.07663 13.6185 2.79048 13.8295 2.5795C14.0405 2.36853 14.3266 2.25 14.625 2.25H21.375C21.6734 2.25 21.9595 2.36853 22.1705 2.5795C22.3815 2.79048 22.5 3.07663 22.5 3.375V9Z" fill="currentColor"/>
<path d="M7.7616 9L5.25848 11.8125L7.75809 14.625H26.9991V9H7.7616ZM7.25535 6.75H28.1241C28.4225 6.75 28.7086 6.86853 28.9196 7.07951C29.1306 7.29048 29.2491 7.57663 29.2491 7.875V15.75C29.2491 16.0484 29.1306 16.3345 28.9196 16.5455C28.7086 16.7565 28.4225 16.875 28.1241 16.875H7.25535C7.09583 16.8751 6.93811 16.8414 6.79264 16.7759C6.64717 16.7105 6.51728 16.6148 6.4116 16.4953L2.91707 12.5578C2.73517 12.3521 2.63477 12.0871 2.63477 11.8125C2.63477 11.5379 2.73517 11.2729 2.91707 11.0672L6.41863 7.12969C6.52392 7.01064 6.65324 6.91525 6.79807 6.84981C6.94289 6.78436 7.09994 6.75035 7.25887 6.75M31.1229 24.1875L28.6163 27H9.37879V21.375H28.6163L31.1229 24.1875ZM29.1261 19.125H8.26082C7.96245 19.125 7.6763 19.2435 7.46533 19.4545C7.25435 19.6655 7.13582 19.9516 7.13582 20.25V28.125C7.13582 28.4234 7.25435 28.7095 7.46533 28.9205C7.6763 29.1315 7.96245 29.25 8.26082 29.25H29.1296C29.2891 29.2501 29.4468 29.2164 29.5923 29.1509C29.7378 29.0855 29.8676 28.9898 29.9733 28.8703L33.4714 24.9328C33.6533 24.7271 33.7537 24.4621 33.7537 24.1875C33.7537 23.9129 33.6533 23.6479 33.4714 23.4422L29.9698 19.5047C29.8641 19.3852 29.7342 19.2895 29.5888 19.2241C29.4433 19.1586 29.2856 19.1249 29.1261 19.125Z" fill="currentColor"/>
</svg>
