<svg
  xmlns="http://www.w3.org/2000/svg"
  width="24"
  height="24"
  fill="none"
  aria-hidden="true"
>
  <path
    d="M12 2C11.189 2 10.405 2.268 8.838 2.805L8.265 3C5.258 4.03 3.755 4.545 3.378 5.082C3 5.62 3 7.22 3 10.417V11.991C3 17.629 7.239 20.366 9.899 21.527C10.62 21.842 10.981 22 12 22C13.02 22 13.38 21.842 14.101 21.527C16.761 20.365 21 17.63 21 11.991V10.417C21 7.219 21 5.62 20.622 5.082C20.245 4.545 18.742 4.029 15.735 3L15.162 2.805C13.595 2.268 12.812 2 12 2Z"
    stroke="#8A8A8A"
    stroke-width="2"
    stroke-linejoin="round"
  />
</svg>