<svg width="100%" height="100%" viewBox="0 0 36 36" fill="none" xmlns="http://www.w3.org/2000/svg">
<path d="M18 18H13.5C11.1131 18 8.82387 17.0518 7.13604 15.364C5.44821 13.6761 4.5 11.3869 4.5 9V6H9C11.3869 6 13.6761 6.94821 15.364 8.63604C17.0518 10.3239 18 12.6131 18 15V30M18 21C18 18.6131 18.9482 16.3239 20.636 14.636C22.3239 12.9482 24.6131 12 27 12H31.5V13.5C31.5 15.8869 30.5518 18.1761 28.864 19.864C27.1761 21.5518 24.8869 22.5 22.5 22.5H18" stroke="currentColor" stroke-width="2" stroke-linecap="round" stroke-linejoin="round"/>
</svg>
