<svg width="100%" height="100%" viewBox="0 0 24 24" fill="none" xmlns="http://www.w3.org/2000/svg">
<g clip-path="url(#clip0_3447_2190)">
<path d="M2.44493 11.3006C1.98622 10.8419 1.72852 10.2197 1.72852 9.571C1.72852 8.92228 1.98622 8.30013 2.44493 7.84142C2.90365 7.3827 3.5258 7.125 4.17452 7.125C4.82323 7.125 5.44538 7.3827 5.9041 7.84142C6.36281 8.30013 6.62052 8.92228 6.62052 9.571C6.62052 10.2197 6.36281 10.8419 5.9041 11.3006C5.44538 11.7593 4.82323 12.017 4.17452 12.017C3.5258 12.017 2.90365 11.7593 2.44493 11.3006Z" stroke="currentColor" stroke-width="1.5" stroke-linecap="round" stroke-linejoin="round"/>
<path d="M17.5667 10.507C17.4438 10.2103 17.3805 9.89221 17.3805 9.571C17.3805 8.92228 17.6382 8.30013 18.0969 7.84142C18.5556 7.3827 19.1778 7.125 19.8265 7.125C20.4752 7.125 21.0974 7.3827 21.5561 7.84142C22.0148 8.30013 22.2725 8.92228 22.2725 9.571C22.2725 9.89221 22.2092 10.2103 22.0863 10.507C21.9634 10.8038 21.7832 11.0735 21.5561 11.3006C21.329 11.5277 21.0593 11.7079 20.7626 11.8308C20.4658 11.9537 20.1477 12.017 19.8265 12.017C19.5053 12.017 19.1872 11.9537 18.8905 11.8308C18.5937 11.7079 18.3241 11.5277 18.0969 11.3006C17.8698 11.0735 17.6896 10.8038 17.5667 10.507Z" stroke="currentColor" stroke-width="1.5" stroke-linecap="round" stroke-linejoin="round"/>
<path d="M16.4007 23.1249V16.3909C15.1722 16.2773 14.0033 15.8082 13.037 15.041C12.0708 14.2738 11.3489 13.2418 10.9597 12.0709L10.1177 9.54594C10.0505 9.34339 10.0283 9.12864 10.0524 8.91662C10.0766 8.70459 10.1466 8.50037 10.2577 8.31814C10.3687 8.13591 10.5181 7.98005 10.6955 7.86138C10.8728 7.7427 11.0739 7.66407 11.2847 7.63094C11.6396 7.58647 11.9988 7.66858 12.2992 7.86283C12.5995 8.05708 12.8217 8.35102 12.9267 8.69294L13.7447 11.1459C13.9719 11.8272 14.4078 12.4197 14.9906 12.8393C15.5734 13.259 16.2736 13.4845 16.9917 13.4839H21.2917C21.5487 13.4838 21.8032 13.5343 22.0407 13.6325C22.2782 13.7307 22.494 13.8748 22.6758 14.0564C22.8576 14.2381 23.0019 14.4537 23.1004 14.6911C23.1988 14.9285 23.2496 15.1829 23.2497 15.4399V23.1299" stroke="currentColor" stroke-width="1.5" stroke-linecap="round" stroke-linejoin="round"/>
<path d="M10.453 10.548L10.253 11.142C10.0262 11.825 9.58963 12.419 9.00557 12.8395C8.42151 13.26 7.71968 13.4855 7 13.484H2.705C2.1871 13.4843 1.69045 13.6899 1.32396 14.0558C0.957467 14.4218 0.751059 14.9181 0.75 15.436V23.125M7.6 23.125V16.391C8.45718 16.3115 9.28925 16.0586 10.0456 15.6475C10.802 15.2365 11.467 14.676 12 14M11.5 0.875V2.875M15.414 2.96L14 4.376M7.586 2.96L9 4.376" stroke="currentColor" stroke-width="1.5" stroke-linecap="round" stroke-linejoin="round"/>
</g>
<defs>
<clipPath id="clip0_3447_2190">
<rect width="24" height="24" fill="white"/>
</clipPath>
</defs>
</svg>
