<svg width="100%" height="100%" viewBox="0 0 19 19" fill="none" xmlns="http://www.w3.org/2000/svg">
<path d="M2.70459 0.25C4.06271 0.25 5.15919 1.34644 5.15919 2.70452C5.15919 4.0626 4.06271 5.15904 2.70459 5.15904C1.34647 5.15904 0.25 4.0626 0.25 2.70452C0.25 1.34644 1.34594 0.25 2.70459 0.25ZM9.25 0.25C10.6087 0.25 11.7046 1.34644 11.7046 2.70452C11.7046 4.0626 10.6081 5.15904 9.25 5.15904C7.89188 5.15904 6.79541 4.0626 6.79541 2.70452C6.79541 1.34644 7.89188 0.25 9.25 0.25ZM15.7954 0.25C17.1541 0.25 18.25 1.34644 18.25 2.70452C18.25 4.0626 17.1541 5.15904 15.7954 5.15904C14.4368 5.15904 13.3408 4.0626 13.3408 2.70452C13.3408 1.34644 14.4373 0.25 15.7954 0.25ZM9.25 6.79521C10.6087 6.79521 11.7046 7.89165 11.7046 9.24973C11.7046 10.6078 10.6081 11.7043 9.25 11.7043C7.89188 11.7043 6.79541 10.6083 6.79541 9.24973C6.79541 7.89112 7.89188 6.79521 9.25 6.79521ZM9.25 13.341C10.6087 13.341 11.7046 14.4369 11.7046 15.7955C11.7046 17.1541 10.6081 18.25 9.25 18.25C7.89188 18.25 6.79541 17.1536 6.79541 15.7955C6.79541 14.4374 7.89188 13.341 9.25 13.341Z" stroke="currentColor" stroke-width="0.5" stroke-linecap="round" stroke-linejoin="round"/>
</svg>
