<svg width="100%" height="100%" viewBox="0 0 24 24" fill="none" xmlns="http://www.w3.org/2000/svg">
<path d="M11.6542 3.54011L12.0187 3.53861L12.6712 3.54161C13.5427 3.54761 15.1312 3.56861 16.7212 3.62711L16.9777 3.63761C18.7777 3.70961 20.5477 3.83261 21.3277 4.04561C21.8361 4.18321 22.2995 4.45156 22.6719 4.82395C23.0443 5.19634 23.3126 5.65977 23.4502 6.16811C24.2422 9.36311 24.0592 14.3881 23.4652 17.7031C23.3276 18.2114 23.0593 18.6749 22.6869 19.0473C22.3145 19.4197 21.8511 19.688 21.3427 19.8256C19.5877 20.3026 12.8677 20.3311 12.0727 20.3326L11.2672 20.3296C10.042 20.3201 8.81687 20.2951 7.59224 20.2546L7.12724 20.2396L6.68324 20.2201C5.00324 20.1466 3.38324 20.0251 2.64824 19.8241C2.1399 19.6865 1.67647 19.4182 1.30408 19.0458C0.931691 18.6734 0.663339 18.2099 0.525739 17.7016C-0.269261 14.5216 -0.0532613 9.48161 0.510739 6.18161C0.648339 5.67327 0.916691 5.20984 1.28908 4.83745C1.66147 4.46506 2.1249 4.19671 2.63324 4.05911C4.25324 3.61511 10.1932 3.54911 11.6632 3.53711L11.6542 3.54011ZM9.59924 8.34011V15.5401L15.8092 11.9401L9.59924 8.34011Z" fill="currentColor"/>
</svg>
